<?xml version="1.0" encoding="utf-8"?>
<!-- Generator: Adobe Illustrator 25.4.1, SVG Export Plug-In . SVG Version: 6.00 Build 0)  -->
<svg version="1.1" id="图层_1" xmlns="http://www.w3.org/2000/svg" xmlns:xlink="http://www.w3.org/1999/xlink" x="0px" y="0px"
	 viewBox="0 0 16 16" style="enable-background:new 0 0 16 16;" xml:space="preserve">
<style type="text/css">
	.st0{fill:#FFFFFF;}
</style>
<path class="st0" d="M14.4,0H1.6C0.7,0,0,0.7,0,1.5v13C0,15.3,0.7,16,1.6,16h12.8c0.9,0,1.6-0.7,1.6-1.5v-13C16,0.7,15.3,0,14.4,0z
	 M13.9,14H2.1V2h11.7v12H13.9z M4.3,2.8h7.5v1H4.3V2.8z M5.9,4.8h7.5v1H5.9V4.8z M2.5,6.9h6v1h-6V6.9z M9.1,6.9h4.4v1H9.1V6.9z
	 M3.8,8.6h7.5v1H3.8V8.6z M8.5,10.6h4.9v1H8.5V10.6z M3,12.4h7.5v1H3V12.4z"/>
</svg>
